<svg width="414" height="896" viewBox="0 0 414 896" fill="none" xmlns="http://www.w3.org/2000/svg">
<rect width="414" height="896" fill="#F9FAFB"/>
<rect y="800" width="414" height="96" fill="white" fill-opacity="0.5"/>
<rect x="32" y="820" width="48" height="48" rx="16" fill="#E0E7FF"/>
<rect x="112" y="820" width="48" height="48" rx="16" fill="#F3F4F6"/>
<rect x="192" y="820" width="48" height="48" rx="16" fill="#F3F4F6"/>
<rect x="272" y="820" width="48" height="48" rx="16" fill="#F3F4F6"/>
<rect x="352" y="820" width="48" height="48" rx="16" fill="#F3F4F6"/>

<rect x="24" y="60" width="366" height="72" rx="24" fill="white" fill-opacity="0.5"/>
<rect x="40" y="76" width="40" height="40" rx="12" fill="#E0E7FF"/>
<text x="96" y="94" font-family="Arial, sans-serif" font-size="18" font-weight="bold" fill="#111827">Homework Helper</text>
<text x="96" y="116" font-family="Arial, sans-serif" font-size="14" fill="#6B7280">Get help with tough questions</text>

<rect x="24" y="156" width="366" height="620" rx="24" fill="white" fill-opacity="0.5"/>
<text x="48" y="200" font-family="Arial, sans-serif" font-size="16" font-weight="bold" fill="#374151">Your Question</text>
<rect x="48" y="224" width="318" height="100" rx="12" fill="#F3F4F6"/>
<text x="60" y="244" font-family="Arial, sans-serif" font-size="14" fill="#6B7280">Why is the sky blue?</text>
<rect x="48" y="348" width="318" height="48" rx="24" fill="#4F46E5"/>
<text x="160" y="378" font-family="Arial, sans-serif" font-size="16" font-weight="bold" fill="white">Get Help</text>

<text x="48" y="436" font-family="Arial, sans-serif" font-size="16" font-weight="bold" fill="#111827">Answer</text>
<rect x="48" y="460" width="318" height="280" rx="12" fill="#F3F4F6"/>
<rect x="64" y="476" width="286" height="12" rx="4" fill="#D1D5DB"/>
<rect x="64" y="500" width="250" height="10" rx="4" fill="#E5E7EB"/>
<rect x="64" y="522" width="286" height="10" rx="4" fill="#E5E7EB"/>
<rect x="64" y="544" width="200" height="10" rx="4" fill="#E5E7EB"/>
</svg>